<?xml version="1.0" encoding="UTF-8" standalone="no"?>
<!-- Created with Inkscape (http://www.inkscape.org/) -->

<svg
   xmlns:dc="http://purl.org/dc/elements/1.1/"
   xmlns:cc="http://creativecommons.org/ns#"
   xmlns:rdf="http://www.w3.org/1999/02/22-rdf-syntax-ns#"
   xmlns:svg="http://www.w3.org/2000/svg"
   xmlns="http://www.w3.org/2000/svg"
   xmlns:sodipodi="http://sodipodi.sourceforge.net/DTD/sodipodi-0.dtd"
   xmlns:inkscape="http://www.inkscape.org/namespaces/inkscape"
   width="35.400356mm"
   height="28.754385mm"
   viewBox="0 0 125.43433 101.88562"
   id="svg4892"
   version="1.1"
   inkscape:version="0.91 r13725"
   sodipodi:docname="07_server.svg">
  <defs
     id="defs4894" />
  <sodipodi:namedview
     id="base"
     pagecolor="#000000"
     bordercolor="#666666"
     borderopacity="1.0"
     inkscape:pageopacity="0"
     inkscape:pageshadow="2"
     inkscape:zoom="8.4113934"
     inkscape:cx="62.717167"
     inkscape:cy="50.942808"
     inkscape:document-units="px"
     inkscape:current-layer="layer1"
     showgrid="false"
     fit-margin-top="0"
     fit-margin-left="0"
     fit-margin-right="0"
     fit-margin-bottom="0"
     inkscape:window-width="1680"
     inkscape:window-height="1026"
     inkscape:window-x="0"
     inkscape:window-y="24"
     inkscape:window-maximized="1" />
  <metadata
     id="metadata4897">
    <rdf:RDF>
      <cc:Work
         rdf:about="">
        <dc:format>image/svg+xml</dc:format>
        <dc:type
           rdf:resource="http://purl.org/dc/dcmitype/StillImage" />
        <dc:title></dc:title>
      </cc:Work>
    </rdf:RDF>
  </metadata>
  <g
     inkscape:label="Layer 1"
     inkscape:groupmode="layer"
     id="layer1"
     transform="translate(254.14574,-387.13368)">
    <path
       style="display:inline;fill:#00802f;fill-opacity:1;stroke:none"
       inkscape:connector-curvature="0"
       d="m -254.00463,426.00265 c 0.12544,-2.22646 2.3519,-3.98254 5.04874,-3.98254 l 115.07032,0 c 2.69684,0 4.90762,1.75608 5.04873,3.98254 l 0.12544,24.06771 c 0,1.12891 -0.54878,2.21078 -1.5209,2.99475 -0.97211,0.78396 -2.28917,1.22298 -3.65327,1.19162 l -115.07032,0 c -1.33274,0 -2.61845,-0.43902 -3.57488,-1.22298 -0.94076,-0.78397 -1.47386,-1.85016 -1.47386,-2.96339 z m 15.16188,20.61827 c 0,-2.02263 -1.99127,-3.66896 -4.42156,-3.66896 -2.44597,0 -4.42156,1.64633 -4.42156,3.66896 0,2.02263 1.97559,3.65327 4.42156,3.65327 2.43029,0 4.42156,-1.63064 4.42156,-3.65327 z m 75.77802,-0.31359 c -0.76829,0 -1.39546,0.50174 -1.39546,1.14459 0,0.64285 0.62717,1.14459 1.39546,1.14459 l 25.25934,0 c 0.76828,0 1.39545,-0.50174 1.39545,-1.14459 0,-0.64285 -0.62717,-1.14459 -1.39545,-1.14459 z m 0,-3.98254 c -0.76829,0 -1.39546,0.51742 -1.39546,1.14459 0,0.64285 0.62717,1.16027 1.39546,1.16027 l 25.25934,0 c 0.76828,0 1.39545,-0.51742 1.39545,-1.16027 0,-0.62717 -0.62717,-1.14459 -1.39545,-1.14459 z m 0,-4.07662 c -0.76829,0 -1.39546,0.51742 -1.39546,1.14459 0,0.64285 0.62717,1.16027 1.39546,1.16027 l 25.25934,0 c 0.76828,0 1.39545,-0.51742 1.39545,-1.16027 0,-0.62717 -0.62717,-1.14459 -1.39545,-1.14459 z m -91.08101,-47.13195 c 0.14111,-2.24214 2.35189,-3.98254 5.04873,-3.98254 l 115.07033,0 c 2.69683,0 4.90761,1.7404 5.04873,3.98254 l 0.12543,24.06772 c 0,1.12891 -0.54877,2.21078 -1.52089,2.99474 -0.97212,0.78397 -2.28918,1.20731 -3.65327,1.19163 l -115.07033,0 c -1.33274,0 -2.61844,-0.43902 -3.57488,-1.23867 -0.94075,-0.78396 -1.47385,-1.85015 -1.47385,-2.9477 z m 15.16188,20.60259 c 0,-2.02263 -1.99127,-3.65327 -4.42157,-3.65327 -2.44596,0 -4.42156,1.63064 -4.42156,3.65327 0,2.02263 1.9756,3.66896 4.42156,3.66896 2.4303,0 4.42157,-1.64633 4.42157,-3.66896 z m 75.77801,-0.31358 c -0.76828,0 -1.39545,0.51741 -1.39545,1.16026 0,0.62718 0.62717,1.14459 1.39545,1.14459 l 25.25934,0 c 0.76829,0 1.39546,-0.51741 1.39546,-1.14459 0,-0.64285 -0.62717,-1.16026 -1.39546,-1.16026 z m 0,-3.96686 c -0.76828,0 -1.39545,0.51741 -1.39545,1.14458 0,0.64286 0.62717,1.16027 1.39545,1.16027 l 25.25934,0 c 0.76829,0 1.39546,-0.51741 1.39546,-1.16027 0,-0.62717 -0.62717,-1.14458 -1.39546,-1.14458 z m 0,-4.07662 c -0.76828,0 -1.39545,0.50174 -1.39545,1.14459 0,0.62717 0.62717,1.14459 1.39545,1.14459 l 25.25934,0 c 0.76829,0 1.39546,-0.51742 1.39546,-1.14459 0,-0.64285 -0.62717,-1.14459 -1.39546,-1.14459 z m -90.79878,57.40189 c 0.12544,-2.22646 2.3519,-3.98254 5.04874,-3.98254 l 115.07032,0 c 2.69684,0 4.90762,1.75608 5.04873,3.98254 l 0.12544,24.06771 c 0,1.12891 -0.54878,2.21078 -1.5209,2.99475 -0.97211,0.78396 -2.28917,1.22298 -3.65327,1.19162 l -115.07032,0 c -2.79092,0 -5.04874,-1.88151 -5.04874,-4.18637 z m 15.16188,20.61827 c 0,-2.02263 -1.99127,-3.66896 -4.42156,-3.66896 -2.44597,0 -4.42156,1.64633 -4.42156,3.66896 0,2.02263 1.97559,3.65327 4.42156,3.65327 2.43029,0 4.42156,-1.63064 4.42156,-3.65327 z m 75.77802,-0.31359 c -0.76829,0 -1.39546,0.51742 -1.39546,1.14459 0,0.64285 0.62717,1.16027 1.39546,1.16027 l 25.25934,0 c 0.76828,0 1.39545,-0.51742 1.39545,-1.16027 0,-0.62717 -0.62717,-1.14459 -1.39545,-1.14459 z m 0,-3.98254 c -0.76829,0 -1.39546,0.51742 -1.39546,1.16027 0,0.62717 0.62717,1.14459 1.39546,1.14459 l 25.25934,0 c 0.76828,0 1.39545,-0.51742 1.39545,-1.14459 0,-0.64285 -0.62717,-1.16027 -1.39545,-1.16027 z m 0,-4.07662 c -0.76829,0 -1.39546,0.51742 -1.39546,1.14459 0,0.64285 0.62717,1.16027 1.39546,1.16027 l 25.25934,0 c 0.76828,0 1.39545,-0.51742 1.39545,-1.16027 0,-0.62717 -0.62717,-1.14459 -1.39545,-1.14459 z"
       pointer-events="none"
       id="path25412-6"
       inkscape:export-xdpi="215.53584"
       inkscape:export-ydpi="215.53584" />
  </g>
</svg>
