<?xml version="1.0" encoding="UTF-8" standalone="no"?>
<svg
   id="Layer_1"
   data-name="Layer 1"
   viewBox="0 0 2061.71 1253.01"
   version="1.1"
   sodipodi:docname="Column-based vs row-based databases illustration-01.svg"
   inkscape:version="1.2.1 (9c6d41e410, 2022-07-14)"
   inkscape:export-filename="column_v_rowbased.png"
   inkscape:export-xdpi="96"
   inkscape:export-ydpi="96"
   xmlns:inkscape="http://www.inkscape.org/namespaces/inkscape"
   xmlns:sodipodi="http://sodipodi.sourceforge.net/DTD/sodipodi-0.dtd"
   xmlns="http://www.w3.org/2000/svg"
   xmlns:svg="http://www.w3.org/2000/svg">
  <sodipodi:namedview
     id="namedview195"
     pagecolor="#ffffff"
     bordercolor="#666666"
     borderopacity="1.0"
     inkscape:showpageshadow="2"
     inkscape:pageopacity="0.0"
     inkscape:pagecheckerboard="0"
     inkscape:deskcolor="#d1d1d1"
     showgrid="false"
     showguides="true"
     inkscape:zoom="0.60726291"
     inkscape:cx="889.23593"
     inkscape:cy="625.75861"
     inkscape:window-width="1920"
     inkscape:window-height="1011"
     inkscape:window-x="0"
     inkscape:window-y="32"
     inkscape:window-maximized="1"
     inkscape:current-layer="Layer_1">
    <sodipodi:guide
       position="1622.0322,1037.288"
       orientation="0,-1"
       id="guide582"
       inkscape:locked="false" />
  </sodipodi:namedview>
  <defs
     id="defs4">
    <style
       id="style2">.cls-1{font-size:44.96px;font-family:Roboto-Medium, Roboto;font-weight:500;}.cls-2,.cls-4{fill:none;stroke:#000;stroke-width:2px;}.cls-2{stroke-miterlimit:10;}.cls-3{font-size:35px;font-family:Roboto-Regular, Roboto;}.cls-4{stroke-linecap:round;stroke-linejoin:round;}.cls-5{letter-spacing:-0.01em;}.cls-6{letter-spacing:-0.01em;}</style>
  </defs>
  <text
     class="cls-1"
     transform="translate(249.77 38.46)"
     id="text6">Row - based</text>
  <text
     class="cls-1"
     transform="translate(1565.39 38.46)"
     id="text8">Column - based</text>
  <rect
     class="cls-2"
     x="1"
     y="96.74"
     width="744.1"
     height="802.25"
     rx="2.19"
     id="rect10" />
  <text
     class="cls-3"
     transform="rotate(-0.06)"
     id="text14"
     x="305.6749"
     y="215.20023">.</text>
  <text
     class="cls-3"
     transform="rotate(-0.06)"
     id="text16"
     x="366.89493"
     y="215.20433">.</text>
  <text
     class="cls-3"
     transform="rotate(-0.06)"
     id="text18"
     x="428.11496"
     y="215.19844">.</text>
  <text
     class="cls-3"
     transform="translate(94.07 218.01) rotate(-0.06)"
     id="text20">V</text>
  <text
     class="cls-3"
     transform="matrix(0.58, 0, 0, 0.58, 116.35, 229.64)"
     id="text22">1</text>
  <text
     class="cls-3"
     transform="rotate(-0.06)"
     id="text24"
     x="167.2717"
     y="218.10529">V</text>
  <text
     class="cls-3"
     id="text26"
     x="189.78"
     y="229.56"
     style="font-size:20.2667px;stroke-width:0.58">2</text>
  <text
     class="cls-3"
     transform="translate(616.84 216.52)"
     id="text28">V</text>
  <text
     class="cls-3"
     transform="translate(639.11 228.17) scale(0.58)"
     id="text30">P</text>
  <path
     class="cls-4"
     d="M652,317.09v63.54c0,.46-1.43.82-3.2.82H100.35c-1.77,0-3.21-.36-3.21-.82V255.78c0-.45,1.44-.82,3.21-.82H652Z"
     id="path32" />
  <line
     class="cls-4"
     x1="530.38"
     y1="380.36"
     x2="530.38"
     y2="256.38"
     id="line34" />
  <line
     class="cls-4"
     x1="468.06"
     y1="380.36"
     x2="468.06"
     y2="256.38"
     id="line36" />
  <line
     class="cls-4"
     x1="405.73"
     y1="380.36"
     x2="405.73"
     y2="256.38"
     id="line38" />
  <line
     class="cls-4"
     x1="343.4"
     y1="380.36"
     x2="343.4"
     y2="256.38"
     id="line40" />
  <line
     class="cls-4"
     x1="281.07"
     y1="380.36"
     x2="281.07"
     y2="256.38"
     id="line42" />
  <line
     class="cls-4"
     x1="218.74"
     y1="380.36"
     x2="218.74"
     y2="256.38"
     id="line44" />
  <line
     class="cls-4"
     x1="156.42"
     y1="380.36"
     x2="156.42"
     y2="256.38"
     id="line46" />
  <line
     class="cls-4"
     x1="592.71"
     y1="380.36"
     x2="592.71"
     y2="254.31"
     id="line48" />
  <path
     class="cls-4"
     d="M652,530.94v63.54c0,.45-1.43.82-3.2.82H100.35c-1.77,0-3.21-.37-3.21-.82V469.63c0-.46,1.44-.82,3.21-.82H652Z"
     id="path50" />
  <line
     class="cls-4"
     x1="530.38"
     y1="594.2"
     x2="530.38"
     y2="470.22"
     id="line52" />
  <line
     class="cls-4"
     x1="468.06"
     y1="594.2"
     x2="468.06"
     y2="470.22"
     id="line54" />
  <line
     class="cls-4"
     x1="405.73"
     y1="594.2"
     x2="405.73"
     y2="470.22"
     id="line56" />
  <line
     class="cls-4"
     x1="343.4"
     y1="594.2"
     x2="343.4"
     y2="470.22"
     id="line58" />
  <line
     class="cls-4"
     x1="281.07"
     y1="594.2"
     x2="281.07"
     y2="470.22"
     id="line60" />
  <line
     class="cls-4"
     x1="218.74"
     y1="594.2"
     x2="218.74"
     y2="470.22"
     id="line62" />
  <line
     class="cls-4"
     x1="156.42"
     y1="594.2"
     x2="156.42"
     y2="470.22"
     id="line64" />
  <line
     class="cls-4"
     x1="592.71"
     y1="594.2"
     x2="592.71"
     y2="468.16"
     id="line66" />
  <path
     class="cls-4"
     d="M652,744.78v63.55c0,.45-1.43.82-3.2.82H100.35c-1.77,0-3.21-.37-3.21-.82V683.47c0-.45,1.44-.82,3.21-.82H652Z"
     id="path68" />
  <line
     class="cls-4"
     x1="530.38"
     y1="808.05"
     x2="530.38"
     y2="684.07"
     id="line70" />
  <line
     class="cls-4"
     x1="468.06"
     y1="808.05"
     x2="468.06"
     y2="684.07"
     id="line72" />
  <line
     class="cls-4"
     x1="405.73"
     y1="808.05"
     x2="405.73"
     y2="684.07"
     id="line74" />
  <line
     class="cls-4"
     x1="343.4"
     y1="808.05"
     x2="343.4"
     y2="684.07"
     id="line76" />
  <line
     class="cls-4"
     x1="281.07"
     y1="808.05"
     x2="281.07"
     y2="684.07"
     id="line78" />
  <line
     class="cls-4"
     x1="218.74"
     y1="808.05"
     x2="218.74"
     y2="684.07"
     id="line80" />
  <line
     class="cls-4"
     x1="156.42"
     y1="808.05"
     x2="156.42"
     y2="684.07"
     id="line82" />
  <line
     class="cls-4"
     x1="592.71"
     y1="808.05"
     x2="592.71"
     y2="682"
     id="line84" />
  <path
     class="cls-4"
     d="M1902.55,806.11H1839c-.45,0-.82-1.43-.82-3.2V254.51c0-1.77.37-3.2.82-3.2h124.85c.46,0,.82,1.43.82,3.2V806.15Z"
     id="path86" />
  <line
     class="cls-4"
     x1="1839.28"
     y1="684.55"
     x2="1963.27"
     y2="684.55"
     id="line88" />
  <line
     class="cls-4"
     x1="1839.28"
     y1="622.22"
     x2="1963.27"
     y2="622.22"
     id="line90" />
  <line
     class="cls-4"
     x1="1839.28"
     y1="559.89"
     x2="1963.27"
     y2="559.89"
     id="line92" />
  <line
     class="cls-4"
     x1="1839.28"
     y1="497.56"
     x2="1963.27"
     y2="497.56"
     id="line94" />
  <line
     class="cls-4"
     x1="1839.28"
     y1="435.24"
     x2="1963.27"
     y2="435.24"
     id="line96" />
  <line
     class="cls-4"
     x1="1839.28"
     y1="372.91"
     x2="1963.27"
     y2="372.91"
     id="line98" />
  <line
     class="cls-4"
     x1="1839.28"
     y1="310.58"
     x2="1963.27"
     y2="310.58"
     id="line100" />
  <line
     class="cls-4"
     x1="1839.28"
     y1="746.88"
     x2="1965.33"
     y2="746.88"
     id="line102" />
  <path
     class="cls-4"
     d="M1688.71,806.11h-63.55c-.45,0-.82-1.43-.82-3.2V254.51c0-1.77.37-3.2.82-3.2H1750c.45,0,.82,1.43.82,3.2V806.15Z"
     id="path104" />
  <line
     class="cls-4"
     x1="1625.44"
     y1="684.55"
     x2="1749.42"
     y2="684.55"
     id="line106" />
  <line
     class="cls-4"
     x1="1625.44"
     y1="622.22"
     x2="1749.42"
     y2="622.22"
     id="line108" />
  <line
     class="cls-4"
     x1="1625.44"
     y1="559.89"
     x2="1749.42"
     y2="559.89"
     id="line110" />
  <line
     class="cls-4"
     x1="1625.44"
     y1="497.56"
     x2="1749.42"
     y2="497.56"
     id="line112" />
  <line
     class="cls-4"
     x1="1625.44"
     y1="435.24"
     x2="1749.42"
     y2="435.24"
     id="line114" />
  <line
     class="cls-4"
     x1="1625.44"
     y1="372.91"
     x2="1749.42"
     y2="372.91"
     id="line116" />
  <line
     class="cls-4"
     x1="1625.44"
     y1="310.58"
     x2="1749.42"
     y2="310.58"
     id="line118" />
  <line
     class="cls-4"
     x1="1625.44"
     y1="746.88"
     x2="1751.49"
     y2="746.88"
     id="line120" />
  <path
     class="cls-4"
     d="M1474.86,806.11h-63.55c-.45,0-.82-1.43-.82-3.2V254.51c0-1.77.37-3.2.82-3.2h124.86c.45,0,.82,1.43.82,3.2V806.15Z"
     id="path122" />
  <line
     class="cls-4"
     x1="1411.59"
     y1="684.55"
     x2="1535.57"
     y2="684.55"
     id="line124" />
  <line
     class="cls-4"
     x1="1411.59"
     y1="622.22"
     x2="1535.57"
     y2="622.22"
     id="line126" />
  <line
     class="cls-4"
     x1="1411.59"
     y1="559.89"
     x2="1535.57"
     y2="559.89"
     id="line128" />
  <line
     class="cls-4"
     x1="1411.59"
     y1="497.56"
     x2="1535.57"
     y2="497.56"
     id="line130" />
  <line
     class="cls-4"
     x1="1411.59"
     y1="435.24"
     x2="1535.57"
     y2="435.24"
     id="line132" />
  <line
     class="cls-4"
     x1="1411.59"
     y1="372.91"
     x2="1535.57"
     y2="372.91"
     id="line134" />
  <line
     class="cls-4"
     x1="1411.59"
     y1="310.58"
     x2="1535.57"
     y2="310.58"
     id="line136" />
  <line
     class="cls-4"
     x1="1411.59"
     y1="746.88"
     x2="1537.64"
     y2="746.88"
     id="line138" />
  <rect
     class="cls-2"
     x="1316.61"
     y="96.74"
     width="744.1"
     height="802.25"
     rx="2.19"
     id="rect140" />
  <text
     class="cls-3"
     id="text150"
     x="1454.49"
     y="217.87">V</text>
  <text
     class="cls-3"
     transform="matrix(0.58,0,0,0.58,1476.76,229.53)"
     id="text152"
     style="white-space:pre;inline-size:0">1</text>
  <text
     class="cls-3"
     id="text154"
     x="1663.92"
     y="217.87">V</text>
  <text
     class="cls-3"
     id="text156"
     x="1686.1899"
     y="229.53"
     style="font-size:20.2667px;stroke-width:0.58">2</text>
  <text
     class="cls-3"
     id="text158"
     x="1883.04"
     y="216.52">V</text>
  <text
     class="cls-3"
     id="text160"
     x="1905.3101"
     y="228.17"
     style="font-size:20.2667px;stroke-width:0.58">P</text>
  <text
     class="cls-3"
     transform="translate(1022.32 286.57)"
     id="text172">Acces/<tspan
   class="cls-5"
   x="110.49"
   y="0"
   id="tspan162">W</tspan><tspan
   x="141.18"
   y="0"
   id="tspan164">rite</tspan><tspan
   x="0"
   y="42"
   id="tspan166">per </tspan><tspan
   class="cls-6"
   x="58.69"
   y="42"
   id="tspan168">r</tspan><tspan
   x="70.19"
   y="42"
   id="tspan170">ow</tspan></text>
  <rect
     class="cls-2"
     x="950.7"
     y="203.67"
     width="342.54"
     height="187.35"
     rx="2.19"
     id="rect174" />
  <line
     class="cls-2"
     x1="949.24"
     y1="297.34"
     x2="773.4"
     y2="297.34"
     id="line176" />
  <path
     d="M761.32,297.34c5.68-2.11,12.73-5.7,17.1-9.51L775,297.34l3.44,9.51C774.05,303,767,299.45,761.32,297.34Z"
     id="path178" />
  <text
     class="cls-3"
     transform="translate(1385.61 1147.57)"
     id="text186">Acces/<tspan
   class="cls-5"
   x="110.49"
   y="0"
   id="tspan180">W</tspan><tspan
   x="141.18"
   y="0"
   id="tspan182">rite</tspan><tspan
   x="0"
   y="42"
   id="tspan184">per column</tspan></text>
  <rect
     class="cls-2"
     x="1313.98"
     y="1064.67"
     width="342.54"
     height="187.35"
     rx="2.19"
     id="rect188" />
  <line
     class="cls-2"
     x1="1485.25"
     y1="1062.07"
     x2="1485.25"
     y2="926.45"
     id="line190" />
  <path
     d="M1485.25,914.38c2.11,5.68,5.7,12.73,9.51,17.1l-9.51-3.44-9.51,3.44C1479.55,927.11,1483.14,920.06,1485.25,914.38Z"
     id="path192" />
  <text
     xml:space="preserve"
     style="font-style:normal;font-weight:normal;font-size:35px;line-height:1.25;font-family:sans-serif;fill:#000000;fill-opacity:1;stroke:none"
     x="1779.7849"
     y="215.42859"
     id="text586"><tspan
       sodipodi:role="line"
       id="tspan584"
       x="1779.7849"
       y="215.42859"
       style="font-size:35px">...</tspan></text>
</svg>
