<svg id="Layer_1" data-name="Layer 1" xmlns="http://www.w3.org/2000/svg" viewBox="0 0 296.15 274.05"><defs><style>.cls-1,.cls-2{fill:none;stroke:#000;stroke-miterlimit:10;}.cls-1{stroke-width:2px;}</style></defs><rect class="cls-1" x="123.18" y="1" width="49.79" height="69.71" rx="3.05"/><rect class="cls-2" x="130.71" y="42.1" width="2" height="2" rx="0.9"/><rect class="cls-2" x="130.71" y="45.74" width="2" height="2" rx="0.9"/><rect class="cls-2" x="130.71" y="49.39" width="2" height="2" rx="0.9"/><rect class="cls-2" x="130.71" y="53.03" width="2" height="2" rx="0.9"/><rect class="cls-2" x="130.71" y="56.67" width="2" height="2" rx="0.9"/><rect class="cls-2" x="130.71" y="60.32" width="2" height="2" rx="0.9"/><rect class="cls-2" x="158.58" y="13.2" width="2" height="2" rx="0.9"/><rect class="cls-2" x="158.58" y="22.18" width="2" height="2" rx="0.9"/><rect class="cls-2" x="158.58" y="31.17" width="2" height="2" rx="0.9"/><rect class="cls-1" x="130.71" y="8.53" width="34.73" height="28.42"/><line class="cls-1" x1="130.71" y1="18" x2="165.44" y2="18"/><line class="cls-1" x1="130.71" y1="27.47" x2="165.44" y2="27.47"/><circle class="cls-1" cx="148.07" cy="53.22" r="3.89"/><rect class="cls-1" x="62.09" y="203.34" width="49.79" height="69.71" rx="3.05"/><rect class="cls-2" x="69.62" y="244.44" width="2" height="2" rx="0.9"/><rect class="cls-2" x="69.62" y="248.08" width="2" height="2" rx="0.9"/><rect class="cls-2" x="69.62" y="251.73" width="2" height="2" rx="0.9"/><rect class="cls-2" x="69.62" y="255.37" width="2" height="2" rx="0.9"/><rect class="cls-2" x="69.62" y="259.01" width="2" height="2" rx="0.9"/><rect class="cls-2" x="69.62" y="262.66" width="2" height="2" rx="0.9"/><rect class="cls-2" x="97.5" y="215.54" width="2" height="2" rx="0.9"/><rect class="cls-2" x="97.5" y="224.52" width="2" height="2" rx="0.9"/><rect class="cls-2" x="97.5" y="233.51" width="2" height="2" rx="0.9"/><rect class="cls-1" x="69.62" y="210.87" width="34.73" height="28.42"/><line class="cls-1" x1="69.62" y1="220.34" x2="104.35" y2="220.34"/><line class="cls-1" x1="69.62" y1="229.81" x2="104.35" y2="229.81"/><circle class="cls-1" cx="86.98" cy="255.56" r="3.89"/><rect class="cls-1" x="184.26" y="203.34" width="49.79" height="69.71" rx="3.05"/><rect class="cls-2" x="191.79" y="244.44" width="2" height="2" rx="0.9"/><rect class="cls-2" x="191.79" y="248.08" width="2" height="2" rx="0.9"/><rect class="cls-2" x="191.79" y="251.73" width="2" height="2" rx="0.9"/><rect class="cls-2" x="191.79" y="255.37" width="2" height="2" rx="0.9"/><rect class="cls-2" x="191.79" y="259.01" width="2" height="2" rx="0.9"/><rect class="cls-2" x="191.79" y="262.66" width="2" height="2" rx="0.9"/><rect class="cls-2" x="219.67" y="215.54" width="2" height="2" rx="0.9"/><rect class="cls-2" x="219.67" y="224.52" width="2" height="2" rx="0.9"/><rect class="cls-2" x="219.67" y="233.51" width="2" height="2" rx="0.9"/><rect class="cls-1" x="191.79" y="210.87" width="34.73" height="28.42"/><line class="cls-1" x1="191.79" y1="220.34" x2="226.53" y2="220.34"/><line class="cls-1" x1="191.79" y1="229.81" x2="226.53" y2="229.81"/><circle class="cls-1" cx="209.16" cy="255.56" r="3.89"/><rect class="cls-1" x="245.35" y="77.29" width="49.79" height="69.71" rx="3.05"/><rect class="cls-2" x="252.88" y="118.39" width="2" height="2" rx="0.9"/><rect class="cls-2" x="252.88" y="122.04" width="2" height="2" rx="0.9"/><rect class="cls-2" x="252.88" y="125.68" width="2" height="2" rx="0.9"/><rect class="cls-2" x="252.88" y="129.32" width="2" height="2" rx="0.9"/><rect class="cls-2" x="252.88" y="132.97" width="2" height="2" rx="0.9"/><rect class="cls-2" x="252.88" y="136.61" width="2" height="2" rx="0.9"/><rect class="cls-2" x="280.76" y="89.49" width="2" height="2" rx="0.9"/><rect class="cls-2" x="280.76" y="98.48" width="2" height="2" rx="0.9"/><rect class="cls-2" x="280.76" y="107.46" width="2" height="2" rx="0.9"/><rect class="cls-1" x="252.88" y="84.82" width="34.73" height="28.42"/><line class="cls-1" x1="252.88" y1="94.29" x2="287.62" y2="94.29"/><line class="cls-1" x1="252.88" y1="103.77" x2="287.62" y2="103.77"/><circle class="cls-1" cx="270.25" cy="129.51" r="3.89"/><rect class="cls-1" x="1" y="77.29" width="49.79" height="69.71" rx="3.05"/><rect class="cls-2" x="8.53" y="118.39" width="2" height="2" rx="0.9"/><rect class="cls-2" x="8.53" y="122.04" width="2" height="2" rx="0.9"/><rect class="cls-2" x="8.53" y="125.68" width="2" height="2" rx="0.9"/><rect class="cls-2" x="8.53" y="129.32" width="2" height="2" rx="0.9"/><rect class="cls-2" x="8.53" y="132.97" width="2" height="2" rx="0.9"/><rect class="cls-2" x="8.53" y="136.61" width="2" height="2" rx="0.9"/><rect class="cls-2" x="36.41" y="89.49" width="2" height="2" rx="0.9"/><rect class="cls-2" x="36.41" y="98.48" width="2" height="2" rx="0.9"/><rect class="cls-2" x="36.41" y="107.46" width="2" height="2" rx="0.9"/><rect class="cls-1" x="8.53" y="84.82" width="34.73" height="28.42"/><line class="cls-1" x1="8.53" y1="94.29" x2="43.26" y2="94.29"/><line class="cls-1" x1="8.53" y1="103.77" x2="43.26" y2="103.77"/><circle class="cls-1" cx="25.9" cy="129.51" r="3.89"/><rect class="cls-1" x="123.73" y="100.51" width="49.79" height="69.71" rx="3.05"/><rect class="cls-2" x="131.26" y="141.61" width="2" height="2" rx="0.9"/><rect class="cls-2" x="131.26" y="145.25" width="2" height="2" rx="0.9"/><rect class="cls-2" x="131.26" y="148.9" width="2" height="2" rx="0.9"/><rect class="cls-2" x="131.26" y="152.54" width="2" height="2" rx="0.9"/><rect class="cls-2" x="131.26" y="156.18" width="2" height="2" rx="0.9"/><rect class="cls-2" x="131.26" y="159.83" width="2" height="2" rx="0.9"/><rect class="cls-2" x="159.14" y="112.71" width="2" height="2" rx="0.9"/><rect class="cls-2" x="159.14" y="121.69" width="2" height="2" rx="0.9"/><rect class="cls-2" x="159.14" y="130.68" width="2" height="2" rx="0.9"/><rect class="cls-1" x="131.26" y="108.04" width="34.73" height="28.42"/><line class="cls-1" x1="131.26" y1="117.51" x2="165.99" y2="117.51"/><line class="cls-1" x1="131.26" y1="126.99" x2="165.99" y2="126.99"/><circle class="cls-1" cx="148.63" cy="152.73" r="3.89"/><line class="cls-2" x1="52.14" y1="92.58" x2="123.28" y2="40.92"/><line class="cls-2" x1="243.79" y1="90.37" x2="172.65" y2="38.71"/><line class="cls-2" x1="112.27" y1="237.59" x2="182.52" y2="237.59"/><line class="cls-2" x1="270.38" y1="147.63" x2="234.49" y2="219.37"/><line class="cls-2" x1="25.52" y1="147.63" x2="61.4" y2="219.37"/><line class="cls-2" x1="141.61" y1="170.72" x2="112.87" y2="212.74"/><line class="cls-2" x1="154.88" y1="170.72" x2="183.63" y2="212.74"/><line class="cls-2" x1="146.66" y1="70.85" x2="146.66" y2="99.96"/><line class="cls-2" x1="173.71" y1="126.55" x2="244.44" y2="118.75"/><line class="cls-2" x1="122.82" y1="126.55" x2="52.09" y2="118.75"/></svg>