<svg id="Layer_1" data-name="Layer 1" xmlns="http://www.w3.org/2000/svg" viewBox="0 0 237.15 190.52"><defs><style>.cls-1{fill:none;stroke:#000;stroke-miterlimit:10;stroke-width:2px;}</style></defs><line class="cls-1" x1="139.44" y1="166.49" x2="202.18" y2="161.61"/><path d="M127.41,167.43c5.82,1.66,13.13,4.7,17.78,8.16L141,166.37l2.69-9.75C139.65,160.76,132.91,164.89,127.41,167.43Z"/><line class="cls-1" x1="225.12" y1="96.26" x2="162.44" y2="101.86"/><path d="M237.15,95.19c-5.85-1.6-13.19-4.55-17.88-8l4.28,9.17L221,106.18C225,102,231.68,97.79,237.15,95.19Z"/><ellipse class="cls-1" cx="84.79" cy="92.08" rx="38.09" ry="16.32"/><path class="cls-1" d="M122.88,112.39c0,9-17,16.32-38.09,16.32s-38.08-7.31-38.08-16.32"/><path class="cls-1" d="M122.88,132.7c0,9-17,16.32-38.09,16.32s-38.08-7.3-38.08-16.32"/><path class="cls-1" d="M122.88,153c0,9-17,16.33-38.09,16.33S46.71,162,46.71,153"/><line class="cls-1" x1="122.88" y1="92.08" x2="122.88" y2="153.01"/><line class="cls-1" x1="46.71" y1="92.08" x2="46.71" y2="153.01"/><path class="cls-1" d="M168.24,84,85.61,1.34a1.15,1.15,0,0,0-1.63,0L1.34,84a1.16,1.16,0,0,0,.82,2H17.35V188.36a1.16,1.16,0,0,0,1.16,1.16H151.08a1.16,1.16,0,0,0,1.16-1.16V86h15.19A1.16,1.16,0,0,0,168.24,84Z"/></svg>