<svg id="Layer_1" data-name="Layer 1" xmlns="http://www.w3.org/2000/svg" viewBox="0 0 345.55 173.8"><defs><style>.cls-1{fill:none;stroke:#000;stroke-miterlimit:10;stroke-width:2px;}</style></defs><path class="cls-1" d="M264.7,24.25,240.62,43.08a26.54,26.54,0,0,1-33.94.11l-11.82-9.76a26.54,26.54,0,0,0-34.11.25L148.06,44.47a26.54,26.54,0,0,1-34.59-.15L102.1,34.47a26.54,26.54,0,0,0-33.59-1L55.92,43.2a26.55,26.55,0,0,1-34.72-2L.7,21.25"/><path class="cls-1" d="M264.7,85.25l-24.08,18.83a26.54,26.54,0,0,1-33.94.11l-11.82-9.76a26.54,26.54,0,0,0-34.11.25l-12.69,10.79a26.54,26.54,0,0,1-34.59-.15L102.1,95.47a26.54,26.54,0,0,0-33.59-1l-12.59,9.7a26.55,26.55,0,0,1-34.72-2L.7,82.25"/><path class="cls-1" d="M264.7,146.25l-24.08,18.83a26.54,26.54,0,0,1-33.94.11l-11.82-9.76a26.54,26.54,0,0,0-34.11.25l-12.69,10.79a26.54,26.54,0,0,1-34.59-.15l-11.37-9.85a26.54,26.54,0,0,0-33.59-1l-12.59,9.7a26.55,26.55,0,0,1-34.72-2L.7,143.25"/><ellipse class="cls-1" cx="48.99" cy="64.57" rx="26.38" ry="11.3" transform="translate(-17.3 17.93) rotate(-17.68)"/><path class="cls-1" d="M78.39,70c1.9,6-7.82,14.36-21.7,18.78S30,91.93,28.13,86"/><path class="cls-1" d="M57.08,103.24c-12.3,3.05-23,1.53-24.68-3.85"/><path class="cls-1" d="M82.66,83.36a6.72,6.72,0,0,1-1,5.53"/><line class="cls-1" x1="74.12" y1="56.55" x2="84.42" y2="88.98"/><line class="cls-1" x1="23.86" y1="72.58" x2="35.48" y2="109.7"/><ellipse class="cls-1" cx="136" cy="14.56" rx="26.38" ry="11.3" transform="translate(2.31 43.44) rotate(-18.3)"/><path class="cls-1" d="M165.46,19.63c2,5.93-7.66,14.44-21.49,19s-26.64,3.47-28.6-2.45"/><line class="cls-1" x1="161.04" y1="6.28" x2="168.82" y2="28.96"/><line class="cls-1" x1="110.96" y1="22.84" x2="119.24" y2="48.13"/><ellipse class="cls-1" cx="132.07" cy="128.54" rx="11.3" ry="26.38" transform="translate(-5.21 251.5) rotate(-86.07)"/><path class="cls-1" d="M157.42,144.38c-.42,6.23-12.55,10.47-27.09,9.47s-26-6.85-25.54-13.08"/><path class="cls-1" d="M149.54,165.36c-5,2-12.22,3.07-20.17,2.53-14.53-1-26-6.86-25.54-13.09"/><line class="cls-1" x1="158.39" y1="130.35" x2="156.59" y2="159.57"/><line class="cls-1" x1="105.76" y1="126.73" x2="103.65" y2="157.27"/><ellipse class="cls-1" cx="217.76" cy="66.9" rx="11.3" ry="26.38" transform="translate(109.47 267.32) rotate(-78.69)"/><path class="cls-1" d="M240.87,85.87c-1.22,6.12-13.8,8.77-28.08,5.91s-24.87-10.13-23.65-16.26"/><path class="cls-1" d="M238.11,99.66c-1.22,6.12-13.79,8.77-28.08,5.92-.64-.13-1.28-.27-1.91-.42"/><line class="cls-1" x1="243.63" y1="72.07" x2="236.7" y2="107.25"/><line class="cls-1" x1="191.9" y1="61.73" x2="186.38" y2="89.32"/><line class="cls-1" x1="255.84" y1="123.22" x2="318.58" y2="118.34"/><path d="M243.81,124.16c5.83,1.66,13.13,4.7,17.78,8.16l-4.17-9.22,2.7-9.75C256.06,117.49,249.31,121.62,243.81,124.16Z"/><line class="cls-1" x1="333.53" y1="54.99" x2="270.85" y2="60.59"/><path d="M345.55,53.92c-5.85-1.6-13.18-4.55-17.87-8L332,55.13l-2.58,9.78C333.38,60.73,340.08,56.52,345.55,53.92Z"/></svg>