<?xml version="1.0" encoding="UTF-8" standalone="no"?>
<svg
   xmlns:dc="http://purl.org/dc/elements/1.1/"
   xmlns:cc="http://creativecommons.org/ns#"
   xmlns:rdf="http://www.w3.org/1999/02/22-rdf-syntax-ns#"
   xmlns:svg="http://www.w3.org/2000/svg"
   xmlns="http://www.w3.org/2000/svg"
   xmlns:sodipodi="http://sodipodi.sourceforge.net/DTD/sodipodi-0.dtd"
   xmlns:inkscape="http://www.inkscape.org/namespaces/inkscape"
   version="1.1"
   viewBox="0 0 418 145"
   preserveAspectRatio="xMidYMid meet"
   id="svg5195"
   inkscape:version="0.91 r13725"
   sodipodi:docname="opensecrets.svg">
  <metadata
     id="metadata5205">
    <rdf:RDF>
      <cc:Work
         rdf:about="">
        <dc:format>image/svg+xml</dc:format>
        <dc:type
           rdf:resource="http://purl.org/dc/dcmitype/StillImage" />
      </cc:Work>
    </rdf:RDF>
  </metadata>
  <defs
     id="defs5203" />
  <sodipodi:namedview
     pagecolor="#ffffff"
     bordercolor="#666666"
     borderopacity="1"
     objecttolerance="10"
     gridtolerance="10"
     guidetolerance="10"
     inkscape:pageopacity="0"
     inkscape:pageshadow="2"
     inkscape:window-width="958"
     inkscape:window-height="685"
     id="namedview5201"
     showgrid="false"
     inkscape:zoom="0.78947368"
     inkscape:cx="230.2572"
     inkscape:cy="72.5"
     inkscape:window-x="540"
     inkscape:window-y="65"
     inkscape:window-maximized="0"
     inkscape:current-layer="layer14" />
  <g
     inkscape:groupmode="layer"
     id="layer14"
     inkscape:label="Layer 2"
     style="display:inline">
    <rect
       style="opacity:1;fill:#ffffff;fill-opacity:1;stroke:#ffffff;stroke-width:2.5;stroke-miterlimit:4;stroke-dasharray:20, 2.50000000000000000;stroke-dashoffset:0;stroke-opacity:1"
       id="rect5767"
       width="476.26666"
       height="172.26666"
       x="-22.799999"
       y="-9.5333338" />
  </g>
  <g
     inkscape:groupmode="layer"
     id="layer13"
     inkscape:label="Layer 1"
     style="display:inline">
    <path
       inkscape:connector-curvature="0"
       style="fill:#131c4e"
       d="m 87.4,124.6998 -0.9,1.4 c -1.4,-1 -2.9,-1.4 -4.4,-1.4 -1.9,0 -3.4,0.6 -4.6,1.9 -1.2,1.2 -1.8,2.9 -1.8,4.9 0,2 0.6,3.7 1.9,5 1.2,1.3 2.8,2 4.7,2 1.5,0 2.8,-0.4 4,-1.2 l 0.9,1.3 c -1.5,1 -3.3,1.5 -5.3,1.5 -2.5,0 -4.6,-0.8 -6.2,-2.4 -1.6,-1.6 -2.4,-3.6 -2.4,-6 0,-2.5 0.9,-4.5 2.6,-6.2 1.7,-1.7 3.9,-2.5 6.4,-2.5 1.7,0.1 3.5,0.6 5.1,1.7 z m 11.900003,9.4 -8,0 c 0,1.4 0.4,2.5 1.2,3.3 0.7,0.8 1.7,1.2 2.9,1.2 1,0 2.1,-0.3 3.1,-1 l 0.5,1.1 c -1.4,0.9 -2.8,1.4 -4.2,1.4 -1.7,0 -3,-0.5 -4.100003,-1.6 -1.1,-1.2 -1.7,-2.7 -1.7,-4.7 0,-1.8 0.5,-3.2 1.5,-4.3 1.000003,-1.1 2.300003,-1.7 4.000003,-1.7 2.2,0 3.6,1 4.3,2.9 0.3,0.8 0.5,2 0.5,3.4 z m -2.1,-1.4 c 0,-1 -0.2,-1.8 -0.6,-2.4 -0.5,-0.7 -1.2,-1.1 -2.1,-1.1 -0.9,0 -1.6,0.3 -2.2,0.9 -0.6,0.6 -0.9,1.5 -1,2.5 l 5.9,0 z m 15.199997,7.1 -2.1,0 0,-6.6 c 0,-1.3 -0.1,-2.2 -0.4,-2.7 -0.4,-0.8 -1.2,-1.2 -2.3,-1.2 -1.4,0 -2.4,0.6 -2.9,1.7 -0.2,0.5 -0.3,1.4 -0.3,2.6 l 0,6.2 -2.1,0 0,-11.8 2.1,0 0,1.5 c 1.2,-1.2 2.5,-1.8 4.1,-1.8 2,0 3.2,0.8 3.7,2.4 0.2,0.6 0.3,1.6 0.3,3.1 l 0,6.6 z m 10,-0.4 c -0.9,0.5 -1.7,0.8 -2.6,0.8 -1.2,0 -2.2,-0.5 -2.8,-1.4 -0.3,-0.5 -0.5,-1.5 -0.5,-3.1 l 0,-6.4 -1.7,0 0,-1.3 1.7,0 0,-2.8 2.1,-0.7 0,3.5 3.1,0 0,1.3 -3.1,0 0,6.2 c 0,1.2 0.1,2 0.4,2.5 0.2,0.4 0.7,0.7 1.3,0.7 0.5,0 1.1,-0.1 1.6,-0.4 l 0.5,1.1 z m 11,-5.3 -8,0 c 0,1.4 0.4,2.5 1.2,3.3 0.7,0.8 1.7,1.2 2.9,1.2 1,0 2.1,-0.3 3.1,-1 l 0.6,1.1 c -1.4,0.9 -2.8,1.4 -4.2,1.4 -1.7,0 -3,-0.5 -4.1,-1.6 -1.1,-1.2 -1.7,-2.7 -1.7,-4.7 0,-1.8 0.5,-3.2 1.5,-4.3 1,-1.1 2.3,-1.7 4,-1.7 2.2,0 3.6,1 4.3,2.9 0.2,0.8 0.4,2 0.4,3.4 z m -2,-1.4 c 0,-1 -0.2,-1.8 -0.6,-2.4 -0.5,-0.7 -1.2,-1.1 -2.1,-1.1 -0.9,0 -1.6,0.3 -2.2,0.9 -0.6,0.6 -0.9,1.5 -1,2.5 l 5.9,0 z m 11.5,-3.7 -1,1.4 c -0.8,-0.4 -1.3,-0.6 -1.6,-0.6 -0.8,0 -1.3,0.5 -1.6,1.5 -0.2,0.7 -0.3,1.7 -0.3,3 l 0,5.6 -2.1,0 0,-11.8 2.1,0 0,1.6 0.5,-0.7 c 0.5,-0.8 1.2,-1.2 1.9,-1.2 0.7,0 1.4,0.4 2.1,1.2 z m 13.1,-6 -0.5,1.1 c -0.4,-0.1 -0.7,-0.2 -1.1,-0.2 -0.8,0 -1.3,0.3 -1.5,0.9 -0.1,0.2 -0.1,0.8 -0.1,1.7 l 0,1.5 2.8,0 0,1.3 -2.8,0 0,10.5 -2.1,0 0,-10.5 -1.9,0 0,-1.3 1.9,0 0,-1.1 c 0,-1.4 0.2,-2.4 0.6,-2.9 0.7,-1 1.6,-1.4 2.9,-1.4 0.6,-0.1 1.2,0.1 1.8,0.4 z m 12.4,10.8 c 0,1.8 -0.5,3.3 -1.6,4.5 -1.1,1.2 -2.5,1.8 -4.1,1.8 -1.7,0 -3.1,-0.6 -4.2,-1.7 -1.1,-1.2 -1.6,-2.7 -1.6,-4.5 0,-1.8 0.5,-3.3 1.6,-4.4 1.1,-1.1 2.5,-1.7 4.2,-1.7 1.6,0 3,0.6 4.1,1.7 1.1,1.2 1.6,2.6 1.6,4.3 z m -2.2,0 c 0,-1.4 -0.3,-2.5 -0.9,-3.4 -0.6,-0.8 -1.5,-1.2 -2.6,-1.2 -1.1,0 -1.9,0.4 -2.5,1.2 -0.6,0.8 -0.9,2 -0.9,3.4 0,1.5 0.3,2.7 0.9,3.5 0.6,0.8 1.5,1.2 2.6,1.2 1.1,0 1.9,-0.4 2.5,-1.3 0.6,-0.7 0.9,-1.9 0.9,-3.4 z m 12,-4.8 -1,1.4 c -0.8,-0.4 -1.3,-0.6 -1.6,-0.6 -0.8,0 -1.3,0.5 -1.6,1.5 -0.2,0.7 -0.3,1.7 -0.3,3 l 0,5.6 -2.1,0 0,-11.8 2.1,0 0,1.6 0.5,-0.7 c 0.5,-0.8 1.2,-1.2 1.9,-1.2 0.6,0 1.4,0.4 2.1,1.2 z m 18.7,10.4 -2.3,0.7 -3.8,-7.1 -2.4,0 0,6.8 -2.3,0 0,-16.5 3.8,0 c 1.9,0 3.3,0.3 4.1,0.9 1,0.8 1.6,1.9 1.6,3.4 0,2 -0.9,3.6 -2.7,4.8 l 4,7 z m -3.8,-11.6 c 0,-1.1 -0.4,-1.9 -1.1,-2.4 -0.4,-0.3 -1.2,-0.4 -2.2,-0.4 l -1.5,0 0,6.3 1,0 c 1.3,0 2.3,-0.3 2.9,-1 0.6,-0.6 0.9,-1.4 0.9,-2.5 z m 15.2,6.3 -8,0 c 0,1.4 0.4,2.5 1.2,3.3 0.7,0.8 1.7,1.2 2.9,1.2 1,0 2.1,-0.3 3.1,-1 l 0.6,1.1 c -1.4,0.9 -2.8,1.4 -4.2,1.4 -1.7,0 -3,-0.5 -4.1,-1.6 -1.1,-1.2 -1.7,-2.7 -1.7,-4.7 0,-1.8 0.5,-3.2 1.5,-4.3 1,-1.1 2.3,-1.7 4,-1.7 2.2,0 3.6,1 4.3,2.9 0.3,0.8 0.4,2 0.4,3.4 z m -2,-1.4 c 0,-1 -0.2,-1.8 -0.6,-2.4 -0.5,-0.7 -1.2,-1.1 -2.1,-1.1 -0.9,0 -1.6,0.3 -2.2,0.9 -0.6,0.6 -0.9,1.5 -1,2.5 l 5.9,0 z m 11.4,4 c 0,1 -0.4,1.8 -1.1,2.5 -0.7,0.6 -1.7,1 -2.9,1 -1.3,0 -2.6,-0.5 -3.7,-1.5 l 1,-1.2 c 0.9,0.8 1.7,1.2 2.5,1.2 0.6,0 1.1,-0.2 1.4,-0.5 0.4,-0.3 0.5,-0.7 0.5,-1.3 0,-0.5 -0.1,-0.8 -0.4,-1.1 -0.2,-0.3 -0.8,-0.8 -1.6,-1.4 -1,-0.7 -1.6,-1.2 -1.9,-1.5 -0.6,-0.6 -0.9,-1.3 -0.9,-2.1 0,-0.9 0.4,-1.6 1.1,-2.2 0.7,-0.6 1.6,-0.9 2.6,-0.9 1.1,0 2.1,0.4 3.1,1.1 l -0.9,1.1 c -0.6,-0.5 -1.4,-0.8 -2.1,-0.8 -0.5,0 -0.9,0.1 -1.3,0.4 -0.3,0.2 -0.5,0.6 -0.5,1 0,0.5 0.5,1.1 1.4,1.8 1.4,1 2.4,1.8 2.8,2.4 0.7,0.5 0.9,1.2 0.9,2 z m 14.7,-3 c 0,1.9 -0.5,3.4 -1.6,4.6 -1.1,1.2 -2.4,1.8 -4.1,1.8 -1.4,0 -2.7,-0.6 -3.7,-1.9 l 0,7.5 -2,0 0,-17.7 2,0 0,1.8 c 1,-1.4 2.4,-2.1 4.2,-2.1 1.6,0 2.8,0.5 3.8,1.6 0.9,1.2 1.4,2.6 1.4,4.4 z m -2.2,0.1 c 0,-1.4 -0.3,-2.5 -0.9,-3.3 -0.6,-0.8 -1.5,-1.2 -2.5,-1.2 -1.1,0 -2,0.4 -2.7,1.3 -0.7,0.9 -1,2.1 -1,3.5 0,1.4 0.3,2.5 1,3.3 0.7,0.8 1.6,1.2 2.7,1.2 1.2,0 2.1,-0.5 2.7,-1.6 0.4,-0.9 0.7,-1.9 0.7,-3.2 z m 15.9,0 c 0,1.8 -0.5,3.3 -1.6,4.5 -1.1,1.2 -2.5,1.8 -4.1,1.8 -1.7,0 -3.1,-0.6 -4.2,-1.7 -1.1,-1.2 -1.6,-2.7 -1.6,-4.5 0,-1.8 0.5,-3.3 1.6,-4.4 1.1,-1.1 2.5,-1.7 4.2,-1.7 1.6,0 3,0.6 4.1,1.7 1.1,1.2 1.6,2.6 1.6,4.3 z m -2.2,0 c 0,-1.4 -0.3,-2.5 -0.9,-3.4 -0.6,-0.8 -1.5,-1.2 -2.6,-1.2 -1.1,0 -1.9,0.4 -2.5,1.2 -0.6,0.8 -0.9,2 -0.9,3.4 0,1.5 0.3,2.7 0.9,3.5 0.6,0.8 1.5,1.2 2.6,1.2 1.1,0 1.9,-0.4 2.5,-1.3 0.6,-0.7 0.9,-1.9 0.9,-3.4 z m 15.6,6 -2.1,0 0,-6.6 c 0,-1.3 -0.1,-2.2 -0.4,-2.7 -0.4,-0.8 -1.2,-1.2 -2.3,-1.2 -1.4,0 -2.4,0.6 -2.9,1.7 -0.2,0.5 -0.3,1.4 -0.3,2.6 l 0,6.2 -2.1,0 0,-11.8 2.1,0 0,1.5 c 1.2,-1.2 2.5,-1.8 4.1,-1.8 2,0 3.2,0.8 3.7,2.4 0.2,0.6 0.3,1.6 0.3,3.1 l 0,6.6 z m 10.5,-3.1 c 0,1 -0.4,1.8 -1.1,2.5 -0.7,0.6 -1.7,1 -2.9,1 -1.3,0 -2.6,-0.5 -3.7,-1.5 l 1,-1.2 c 0.9,0.8 1.7,1.2 2.5,1.2 0.6,0 1.1,-0.2 1.4,-0.5 0.4,-0.3 0.5,-0.7 0.5,-1.3 0,-0.5 -0.1,-0.8 -0.4,-1.1 -0.2,-0.3 -0.8,-0.8 -1.6,-1.4 -1,-0.7 -1.6,-1.2 -1.9,-1.5 -0.6,-0.6 -0.9,-1.3 -0.9,-2.1 0,-0.9 0.4,-1.6 1.1,-2.2 0.7,-0.6 1.6,-0.9 2.6,-0.9 1.1,0 2.1,0.4 3.1,1.1 l -0.9,1.1 c -0.6,-0.5 -1.4,-0.8 -2.1,-0.8 -0.5,0 -0.9,0.1 -1.3,0.4 -0.3,0.2 -0.5,0.6 -0.5,1 0,0.5 0.5,1.1 1.4,1.8 1.4,1 2.4,1.8 2.8,2.4 0.6,0.5 0.9,1.2 0.9,2 z m 5.3,-12.4 c 0,0.4 -0.1,0.7 -0.4,0.9 -0.3,0.3 -0.6,0.4 -0.9,0.4 -0.4,0 -0.7,-0.1 -0.9,-0.4 -0.3,-0.3 -0.4,-0.6 -0.4,-0.9 0,-0.9 0.5,-1.4 1.4,-1.4 0.4,0 0.7,0.1 0.9,0.4 0.1,0.3 0.3,0.6 0.3,1 z m -0.3,15.5 -2.1,0 0,-11.8 2.1,0 0,11.8 z m 13.3,-11.5 -5.1,11.6 -1.3,0 -4.9,-11.4 2,-0.6 3.7,9.1 3.8,-9.1 1.8,0.4 z m 11.5,5.8 -8,0 c 0,1.4 0.4,2.5 1.2,3.3 0.7,0.8 1.7,1.2 2.9,1.2 1,0 2.1,-0.3 3.1,-1 l 0.6,1.1 c -1.4,0.9 -2.8,1.4 -4.2,1.4 -1.7,0 -3,-0.5 -4.1,-1.6 -1.1,-1.2 -1.7,-2.7 -1.7,-4.7 0,-1.8 0.5,-3.2 1.5,-4.3 1,-1.1 2.3,-1.7 4,-1.7 2.2,0 3.6,1 4.3,2.9 0.3,0.8 0.4,2 0.4,3.4 z m -2,-1.4 c 0,-1 -0.2,-1.8 -0.6,-2.4 -0.5,-0.7 -1.2,-1.1 -2.1,-1.1 -0.9,0 -1.6,0.3 -2.2,0.9 -0.6,0.6 -0.9,1.5 -1,2.5 l 5.9,0 z m 20.8,-4.8 c 0,1.6 -0.6,2.9 -1.7,3.9 -1.2,1 -2.7,1.5 -4.6,1.6 l 0,-1.5 c 1.1,-0.1 2,-0.3 2.6,-0.7 0.9,-0.6 1.4,-1.6 1.4,-3 0,-1.4 -0.5,-2.3 -1.5,-2.8 -0.5,-0.3 -1.4,-0.4 -2.5,-0.4 l -1.1,0 0,14.8 -2.3,0 0,-16.5 3.4,0 c 2.1,0 3.5,0.3 4.4,0.8 1.2,0.9 1.9,2.1 1.9,3.8 z m 12.9,5.9 c 0,1.8 -0.5,3.3 -1.6,4.5 -1.1,1.2 -2.5,1.8 -4.1,1.8 -1.7,0 -3.1,-0.6 -4.2,-1.7 -1.1,-1.2 -1.6,-2.7 -1.6,-4.5 0,-1.8 0.5,-3.3 1.6,-4.4 1.1,-1.1 2.5,-1.7 4.2,-1.7 1.6,0 3,0.6 4.1,1.7 1.1,1.2 1.6,2.6 1.6,4.3 z m -2.3,0 c 0,-1.4 -0.3,-2.5 -0.9,-3.4 -0.6,-0.8 -1.5,-1.2 -2.6,-1.2 -1.1,0 -1.9,0.4 -2.5,1.2 -0.6,0.8 -0.9,2 -0.9,3.4 0,1.5 0.3,2.7 0.9,3.5 0.6,0.8 1.5,1.2 2.6,1.2 1.1,0 1.9,-0.4 2.5,-1.3 0.6,-0.7 0.9,-1.9 0.9,-3.4 z m 7.5,6 -2.1,0 0,-17.3 2.1,0 0,17.3 z m 6.2,-15.5 c 0,0.4 -0.1,0.7 -0.4,0.9 -0.3,0.3 -0.6,0.4 -0.9,0.4 -0.4,0 -0.7,-0.1 -0.9,-0.4 -0.3,-0.3 -0.4,-0.6 -0.4,-0.9 0,-0.9 0.5,-1.4 1.4,-1.4 0.4,0 0.7,0.1 0.9,0.4 0.2,0.3 0.3,0.6 0.3,1 z m -0.3,15.5 -2.1,0 0,-11.8 2.1,0 0,11.8 z m 9.9,-0.4 c -0.9,0.5 -1.7,0.8 -2.6,0.8 -1.2,0 -2.2,-0.5 -2.8,-1.4 -0.3,-0.5 -0.5,-1.5 -0.5,-3.1 l 0,-6.4 -1.6,0 0,-1.3 1.7,0 0,-2.8 2.1,-0.7 0,3.5 3.1,0 0,1.3 -3.1,0 0,6.2 c 0,1.2 0.1,2 0.4,2.5 0.2,0.4 0.7,0.7 1.3,0.7 0.5,0 1.1,-0.1 1.6,-0.4 l 0.4,1.1 z m 4,-15.1 c 0,0.4 -0.1,0.7 -0.4,0.9 -0.3,0.3 -0.6,0.4 -0.9,0.4 -0.4,0 -0.7,-0.1 -0.9,-0.4 -0.3,-0.3 -0.4,-0.6 -0.4,-0.9 0,-0.9 0.5,-1.4 1.4,-1.4 0.4,0 0.7,0.1 0.9,0.4 0.1,0.3 0.3,0.6 0.3,1 z m -0.3,15.5 -2.1,0 0,-11.8 2.1,0 0,11.8 z m 12.4,-0.9 c -1.1,0.8 -2.4,1.2 -3.9,1.2 -1.7,0 -3.2,-0.6 -4.3,-1.8 -1.1,-1.2 -1.6,-2.6 -1.6,-4.4 0,-1.8 0.6,-3.3 1.7,-4.4 1.2,-1.2 2.6,-1.7 4.4,-1.7 1.2,0 2.3,0.3 3.3,1 l -0.7,1.2 c -0.8,-0.4 -1.6,-0.7 -2.4,-0.7 -1.2,0 -2.2,0.4 -3,1.3 -0.8,0.8 -1.1,1.9 -1.1,3.3 0,1.5 0.4,2.7 1.1,3.5 0.7,0.9 1.7,1.3 3,1.3 1,0 1.9,-0.3 2.8,-0.9 l 0.7,1.1 z m 9.2,-2.2 c 0,1 -0.4,1.8 -1.1,2.5 -0.7,0.6 -1.7,1 -2.9,1 -1.3,0 -2.6,-0.5 -3.7,-1.5 l 1,-1.2 c 0.9,0.8 1.7,1.2 2.5,1.2 0.6,0 1.1,-0.2 1.4,-0.5 0.4,-0.3 0.5,-0.7 0.5,-1.3 0,-0.5 -0.1,-0.8 -0.4,-1.1 -0.2,-0.3 -0.8,-0.8 -1.6,-1.4 -1,-0.7 -1.6,-1.2 -1.9,-1.5 -0.6,-0.6 -0.9,-1.3 -0.9,-2.1 0,-0.9 0.4,-1.6 1.1,-2.2 0.7,-0.6 1.6,-0.9 2.6,-0.9 1.1,0 2.1,0.4 3.1,1.1 l -0.9,1.1 c -0.6,-0.5 -1.4,-0.8 -2.1,-0.8 -0.5,0 -0.9,0.1 -1.3,0.4 -0.3,0.2 -0.5,0.6 -0.5,1 0,0.5 0.5,1.1 1.4,1.8 1.4,1 2.4,1.8 2.8,2.4 0.6,0.5 0.9,1.2 0.9,2 z M 156.3,30.099802 c -4,-8.5 -17.9,-19.9 -40.7,-25.8 -35.6,-9.1 -82.1,-1.2 -87.2,26.6 -0.9,4.9 -0.1,9.6 -0.1,9.6 0,0 7,-19.8 41.7,-23.2 6.5,-0.7 12.6,-0.9 18.3,-0.9 -8.4,4.1 -14.2,12.8 -14.2,22.8 0,14 11.4,25.4 25.400003,25.4 13.999997,0 25.399997,-11.4 25.399997,-25.4 0,-8.3 -4,-15.7 -10.3,-20.4 21.5,4 33.4,11.9 36.4,14 6.8,4.8 -3.1,15.7 -3.1,15.7 0,0 13.4,-7.7 8.4,-18.4 z m -37.8,-2.5 -4.6,4.4 1.1,6.3 -5.6,-3 -5.6,3 1.1,-6.3 -4.6,-4.4 6.3,-0.9 2.8,-5.7 2.8,5.7 6.3,0.9 z"
       id="path5197" />
    <path
       inkscape:connector-curvature="0"
       style="fill:#8b2332"
       d="m 41.8,85.099802 c 0,6.3 -1.9,11.6 -5.7,15.699998 -3.9,4.3 -9,6.4 -15.3,6.4 -6.2,0 -11.2999997,-2.1 -15.1999997,-6.4 C 1.9000003,96.699802 3.333332e-8,91.499802 3.333332e-8,85.199802 c 0,-6.2 2.00000026666668,-11.3 6.00000026666668,-15.2 3.9999997,-4 8.9999997,-5.9 15.1999997,-5.9 5.9,0 10.8,2 14.7,6 3.9,4 5.9,9 5.9,15 z m -6.4,0.7 c 0,-5.3 -1.3,-9.5 -4,-12.8 -2.7,-3.2 -6.3,-4.8 -10.7,-4.8 -4.6,0 -8.1,1.8 -10.7999997,5.5 -2.4,3.3 -3.5,7.2 -3.5,12 0,4.8 1.2,8.9 3.5999997,12.1 2.6,3.599998 6.3,5.399998 10.9,5.399998 4.3,0 7.8,-1.6 10.5,-4.799998 2.7,-3.3 4,-7.4 4,-12.6 z m 42.1,5.2 c 0,4.7 -1.4,8.6 -4.1,11.699998 -2.7,3.1 -6.2,4.6 -10.3,4.6 -3.6,0 -6.8,-1.6 -9.5,-4.7 l 0,18.9 -5.2,0 0,-44.799998 5.2,0 0,4.6 c 2.5,-3.5 6.1,-5.3 10.6,-5.3 4,0 7.2,1.4 9.6,4.2 2.5,2.7 3.7,6.3 3.7,10.8 z m -5.8,0.2 c 0,-3.6 -0.8,-6.4 -2.4,-8.4 -1.6,-2.1 -3.7,-3.1 -6.5,-3.1 -2.8,0 -5.1,1.1 -6.8,3.4 -1.7,2.2 -2.6,5.2 -2.6,8.9 0,3.6 0.8,6.4 2.5,8.399998 1.7,2 4,3.1 6.9,3.1 3,0 5.2,-1.4 6.8,-4.099998 1.5,-2.2 2.1,-4.9 2.1,-8.2 z m 35.4,0.8 -20.3,0 c 0.1,3.5 1.1,6.3 3,8.399998 1.900003,2.1 4.300003,3.1 7.300003,3.1 2.6,0 5.199997,-0.9 7.799997,-2.6 l 1.5,2.9 c -3.6,2.3 -7.099997,3.5 -10.599997,3.5 -4.2,0 -7.700003,-1.4 -10.400003,-4.1 -2.9,-3 -4.3,-6.999998 -4.3,-11.899998 0,-4.5 1.3,-8.1 3.9,-11 2.6,-2.9 6,-4.3 10.100003,-4.3 5.599997,0 9.199997,2.5 10.799997,7.4 0.7,2.1 1.1,5 1.2,8.6 z m -5.2,-3.4 c 0,-2.5 -0.5,-4.5 -1.5,-6 -1.199997,-1.9 -2.999997,-2.9 -5.399997,-2.9 -2.3,0 -4.100003,0.8 -5.600003,2.4 -1.4,1.6 -2.2,3.7 -2.4,6.5 l 14.9,0 z m 36.9,17.999998 -5.3,0 0,-16.699998 c 0,-3.2 -0.4,-5.5 -1.1,-6.8 -1.1,-2.1 -3.1,-3.1 -5.9,-3.1 -3.6,0 -6.1,1.5 -7.4,4.4 -0.6,1.3 -0.8,3.4 -0.8,6.5 l 0,15.699998 -5.4,0 0,-29.899998 5.4,0 0,3.8 c 2.9,-3 6.4,-4.5 10.4,-4.5 5,0 8.1,2 9.5,6 0.5,1.4 0.7,4 0.7,7.9 l 0,16.699998 z m 30.5,-10.599998 c 0,3.3 -1.3,5.999998 -3.8,8.099998 -2.5,2.1 -5.8,3.2 -9.7,3.2 -4.3,0 -8.3,-1.3 -11.9,-4 l 2.7,-3.899998 c 3.4,2.399998 6.5,3.699998 9.2,3.699998 2.2,0 4,-0.6 5.4,-1.8 1.4,-1.2 2,-2.799998 2,-4.799998 0,-2.2 -1.2,-4.4 -3.6,-6.5 -0.6,-0.6 -3,-2.5 -7.3,-5.9 -4.3,-3.2 -6.4,-6.5 -6.4,-10 0,-2.9 1.2,-5.3 3.6,-7.2 2.4,-1.9 5.4,-2.9 9.1,-2.9 3.9,0 7.3,1.3 10.4,3.8 l -3.2,3.4 c -2.6,-2 -5,-3 -7.4,-3 -1.9,0 -3.4,0.5 -4.6,1.5 -1.2,1 -1.7,2.3 -1.7,4 0,1.9 1.2,3.8 3.5,5.7 0.4,0.4 2.6,2 6.6,5 2.7,2 4.6,3.9 5.7,5.6 0.9,1.8 1.4,3.8 1.4,6 z m 30,-4 -20.3,0 c 0.1,3.5 1.1,6.3 3,8.399998 1.9,2.1 4.3,3.1 7.3,3.1 2.6,0 5.2,-0.9 7.8,-2.6 l 1.5,2.9 c -3.6,2.3 -7.1,3.5 -10.6,3.5 -4.2,0 -7.7,-1.4 -10.4,-4.1 -2.9,-3 -4.3,-6.999998 -4.3,-11.899998 0,-4.5 1.3,-8.1 3.9,-11 2.6,-2.9 6,-4.3 10.1,-4.3 5.6,0 9.2,2.5 10.8,7.4 0.7,2.1 1.1,5 1.2,8.6 z m -5.2,-3.4 c 0,-2.5 -0.5,-4.5 -1.5,-6 -1.2,-1.9 -3,-2.8 -5.4,-2.8 -2.3,0 -4.1,0.8 -5.6,2.4 -1.4,1.6 -2.3,3.7 -2.5,6.5 l 15,0 z m 33.1,15.599998 c -2.9,2.1 -6.2,3.1 -9.9,3.1 -4.4,0 -8,-1.5 -10.8,-4.5 -2.8,-2.999998 -4.1,-6.699998 -4.1,-11.099998 0,-4.5 1.5,-8.3 4.4,-11.2 3,-2.9 6.7,-4.4 11.3,-4.4 3.1,0 6,0.8 8.4,2.4 l -1.8,3 c -2.1,-1.1 -4.2,-1.7 -6.1,-1.7 -3.1,0 -5.7,1.1 -7.6,3.2 -1.9,2.1 -2.9,4.9 -2.9,8.4 0,3.8 0.9,6.7 2.8,8.899998 1.9,2.2 4.4,3.3 7.6,3.3 2.5,0 4.8,-0.8 7.2,-2.3 l 1.5,2.9 z m 21.9,-25.199998 -2.6,3.6 c -2,-1 -3.3,-1.5 -4,-1.5 -2,0 -3.4,1.2 -4.2,3.7 -0.5,1.7 -0.8,4.2 -0.8,7.6 l 0,14.099998 -5.4,0 0,-29.799998 5.4,0 0,4.2 1.3,-1.9 c 1.3,-2 3,-3 4.9,-3 1.6,0 3.4,1 5.4,3 z m 26.1,13 -20.3,0 c 0.1,3.5 1.1,6.3 3,8.399998 1.9,2.1 4.3,3.1 7.3,3.1 2.6,0 5.2,-0.9 7.8,-2.6 l 1.5,2.9 c -3.6,2.3 -7.1,3.5 -10.6,3.5 -4.2,0 -7.7,-1.4 -10.4,-4.1 -2.9,-3 -4.3,-6.999998 -4.3,-11.899998 0,-4.5 1.3,-8.1 3.9,-11 2.6,-2.9 6,-4.3 10.1,-4.3 5.6,0 9.2,2.5 10.8,7.4 0.7,2.1 1.1,5 1.2,8.6 z m -5.2,-3.4 c 0,-2.5 -0.5,-4.5 -1.5,-6 -1.2,-1.9 -3,-2.8 -5.4,-2.8 -2.3,0 -4.1,0.8 -5.6,2.4 -1.4,1.6 -2.3,3.7 -2.5,6.5 l 15,0 z m 26.5,16.799998 c -2.2,1.3 -4.3,1.9 -6.5,1.9 -3.1,0 -5.5,-1.2 -7,-3.5 -0.9,-1.3 -1.3,-3.899998 -1.3,-7.799998 l 0,-16.1 -4.2,0 0,-3.2 4.2,0 0,-7.2 5.3,-1.7 0,9 7.8,0 0,3.2 -7.8,0 0,15.7 c 0,3.1 0.3,5.099998 0.9,6.199998 0.6,1.1 1.7,1.7 3.3,1.7 1.4,0 2.7,-0.4 4,-1.1 l 1.3,2.9 z m 19.8,-6.799998 c 0,2.599998 -0.9,4.699998 -2.8,6.299998 -1.9,1.6 -4.3,2.4 -7.3,2.4 -3.4,0 -6.6,-1.3 -9.5,-3.8 l 2.6,-3 c 2.2,2 4.3,3.1 6.4,3.1 1.5,0 2.8,-0.4 3.7,-1.2 0.9,-0.8 1.4,-1.9 1.4,-3.199998 0,-1.1 -0.3,-2.1 -0.9,-2.9 -0.6,-0.8 -2,-1.9 -4.1,-3.4 -2.4,-1.8 -4,-3 -4.8,-3.8 -1.6,-1.6 -2.4,-3.4 -2.4,-5.2 0,-2.2 0.9,-4.1 2.7,-5.6 1.8,-1.5 4.1,-2.2 6.7,-2.2 2.8,0 5.4,0.9 7.8,2.7 l -2.2,2.7 c -1.6,-1.3 -3.4,-1.9 -5.4,-1.9 -1.3,0 -2.3,0.3 -3.2,0.9 -0.8,0.6 -1.3,1.4 -1.3,2.4 0,1.3 1.2,2.9 3.6,4.6 3.7,2.6 6.1,4.7 7.2,6.1 1.2,1.3 1.8,3 1.8,5 z m 13.9,4.599998 c 0,1.1 -0.4,2 -1.1,2.8 -0.8,0.7 -1.7,1.1 -2.8,1.1 -1.1,0 -2,-0.4 -2.8,-1.1 -0.7,-0.7 -1.1,-1.6 -1.1,-2.7 0,-1.2 0.4,-2.1 1.1,-2.9 0.8,-0.699998 1.7,-1.099998 2.9,-1.099998 1.1,0 1.9,0.4 2.7,1.199998 0.7,0.6 1.1,1.6 1.1,2.7 z m 35.2,-11.799998 c 0,4.6 -1.4,8.4 -4.1,11.399998 -2.7,3 -6.2,4.5 -10.5,4.5 -4.3,0 -7.8,-1.5 -10.6,-4.4 -2.8,-2.999998 -4.1,-6.799998 -4.1,-11.399998 0,-4.6 1.4,-8.3 4.1,-11.2 2.8,-2.9 6.3,-4.3 10.7,-4.3 4.1,0 7.6,1.5 10.3,4.4 2.8,3 4.2,6.6 4.2,11 z m -5.7,0 c 0,-3.6 -0.8,-6.5 -2.4,-8.5 -1.6,-2.1 -3.8,-3.1 -6.6,-3.1 -2.7,0 -4.8,1 -6.4,3.1 -1.6,2.1 -2.4,5 -2.4,8.6 0,3.8 0.8,6.8 2.4,8.899998 1.6,2.1 3.8,3.2 6.6,3.2 2.7,0 4.9,-1.1 6.4,-3.2 1.6,-2.199998 2.4,-5.199998 2.4,-8.999998 z m 29,-12.4 -2.6,3.6 c -2,-1 -3.3,-1.5 -4,-1.5 -2,0 -3.4,1.2 -4.2,3.7 -0.5,1.7 -0.8,4.2 -0.8,7.6 l 0,14.099998 -5.4,0 0,-29.799998 5.4,0 0,4.2 1.3,-1.9 c 1.3,-2 3,-3 4.9,-3 1.7,0 3.5,1 5.4,3 z M 418,101.7998 c 0,4 -0.2,6.8 -0.5,8.3 -1.8,7.6 -6.8,11.3 -15.2,11.3 -4.7,0 -8.7,-1 -12,-3 l 1.4,-3.5 c 3.6,1.9 6.9,2.8 10.1,2.8 5.2,0 8.5,-1.9 9.9,-5.8 0.6,-1.7 1,-4.3 1,-7.9 l 0,-2.2 c -2.9,3.6 -6.3,5.5 -10.1,5.5 -4.3,0 -7.6,-1.5 -10.1,-4.6 -2.3,-2.899998 -3.5,-6.499998 -3.5,-10.799998 0,-4.5 1.4,-8.3 4.1,-11.3 2.8,-3 6.2,-4.5 10.3,-4.5 4,0 7.1,1.6 9.3,4.8 l 0,-4.2 5.3,0 0,25.099998 z m -5.3,-10.699998 c 0,-3.5 -0.8,-6.3 -2.5,-8.3 -1.7,-2 -3.9,-3 -6.8,-3 -2.7,0 -4.8,1 -6.4,3 -1.6,2 -2.3,4.8 -2.3,8.3 0,3.7 0.8,6.7 2.4,8.999998 1.6,2.3 3.8,3.4 6.4,3.4 2.7,0 4.9,-1.2 6.6,-3.499998 1.7,-2.2 2.6,-5.2 2.6,-8.9 z"
       id="path5199" />
  </g>
</svg>
