<svg id="Layer_1" data-name="Layer 1" xmlns="http://www.w3.org/2000/svg" viewBox="0 0 1799.06 1406.85"><defs><style>.cls-1{font-size:44.96px;}.cls-1,.cls-22,.cls-9{font-family:Roboto-Medium, Roboto;font-weight:500;}.cls-2,.cls-26,.cls-4{fill:none;stroke:#000;}.cls-2,.cls-26{stroke-miterlimit:10;}.cls-2,.cls-4{stroke-width:2px;}.cls-3{font-size:20.54px;}.cls-11,.cls-12,.cls-13,.cls-14,.cls-15,.cls-16,.cls-17,.cls-18,.cls-19,.cls-20,.cls-21,.cls-3,.cls-5{font-family:Roboto-Regular, Roboto;}.cls-4{stroke-linecap:round;stroke-linejoin:round;}.cls-5{font-size:27.08px;}.cls-6{letter-spacing:-0.02em;}.cls-7{letter-spacing:0em;}.cls-8{letter-spacing:-0.02em;}.cls-22,.cls-9{font-size:29.88px;}.cls-10{font-size:25.21px;font-family:Roboto-Bold, Roboto;font-weight:700;}.cls-11,.cls-12,.cls-13,.cls-14,.cls-15,.cls-16,.cls-17,.cls-18,.cls-19,.cls-20,.cls-21{font-weight:400;}.cls-12{letter-spacing:0.01em;}.cls-13{letter-spacing:-0.01em;}.cls-14{letter-spacing:-0.01em;}.cls-15{letter-spacing:0.02em;}.cls-16{letter-spacing:0.01em;}.cls-17{letter-spacing:-0.01em;}.cls-18{letter-spacing:-0.02em;}.cls-19{letter-spacing:0em;}.cls-20{letter-spacing:-0.01em;}.cls-21{letter-spacing:0em;}.cls-22{letter-spacing:-0.01em;}.cls-23{letter-spacing:0em;}.cls-24{letter-spacing:-0.01em;}.cls-25{font-size:83.26px;font-family:Roboto-Light, Roboto;font-weight:300;}.cls-26{stroke-width:1.5px;}</style></defs><text class="cls-1" transform="translate(439.54 228.88)">Big - N</text><text class="cls-1" transform="translate(1226.72 228.88)">Big - P</text><ellipse class="cls-2" cx="628.8" cy="320.04" rx="58.36" ry="25.01"/><path class="cls-2" d="M687.15,351.17c0,13.81-26.12,25-58.35,25s-58.36-11.2-58.36-25"/><path class="cls-2" d="M687.15,382.29c0,13.81-26.12,25-58.35,25s-58.36-11.2-58.36-25"/><path class="cls-2" d="M687.15,413.41c0,13.82-26.12,25-58.35,25s-58.36-11.19-58.36-25"/><line class="cls-2" x1="687.15" y1="320.04" x2="687.15" y2="413.41"/><line class="cls-2" x1="570.44" y1="320.04" x2="570.44" y2="413.41"/><text class="cls-3" transform="translate(327.51 320.54)">1</text><text class="cls-3" transform="translate(327.51 342.73)">1</text><text class="cls-3" transform="translate(326.32 422.19)">N</text><text class="cls-3" transform="translate(329.86 357.76)">.</text><text class="cls-3" transform="translate(329.86 375.66)">.</text><text class="cls-3" transform="translate(329.86 389.98)">.</text><path class="cls-4" d="M412,437.94H348.4a.82.82,0,0,1-.82-.82V297.32a.82.82,0,0,1,.82-.82H473.26a.82.82,0,0,1,.82.82v141.1Z"/><line class="cls-4" x1="348.51" y1="316.71" x2="471.57" y2="316.71"/><line class="cls-4" x1="348.51" y1="336.94" x2="471.57" y2="336.94"/><line class="cls-4" x1="348.51" y1="357.17" x2="471.57" y2="357.17"/><line class="cls-4" x1="347.48" y1="377.4" x2="472.6" y2="377.4"/><line class="cls-4" x1="347.79" y1="397.63" x2="472.29" y2="397.63"/><line class="cls-4" x1="347.79" y1="417.85" x2="472.29" y2="417.85"/><rect class="cls-2" x="152.97" y="149.21" width="707.53" height="352.88" rx="2.19"/><text class="cls-5" transform="translate(1084.25 310.29)">.</text><text class="cls-5" transform="translate(1107.91 310.29)">.</text><text class="cls-5" transform="translate(1131.56 310.29)">.</text><text class="cls-5" transform="translate(1155.21 310.29)">.</text><text class="cls-3" transform="translate(1023.75 305.22)">V</text><text class="cls-3" transform="translate(1036.82 312.06) scale(0.58)">1</text><text class="cls-3" transform="translate(1049.8 305.22)">V</text><text class="cls-3" transform="translate(1062.87 312.06) scale(0.58)">2</text><text class="cls-3" transform="translate(1538.12 305.22)">V</text><text class="cls-3" transform="translate(1551.19 312.06) scale(0.58)">P</text><path class="cls-4" d="M1014.94,384.2V320.66c0-.46,1.43-.82,3.2-.82h548.4c1.77,0,3.21.36,3.21.82V445.51c0,.45-1.44.82-3.21.82H1014.91Z"/><line class="cls-4" x1="1113.84" y1="320.93" x2="1113.84" y2="444.92"/><line class="cls-4" x1="1133.67" y1="320.93" x2="1133.67" y2="444.92"/><line class="cls-4" x1="1153.51" y1="320.93" x2="1153.51" y2="444.92"/><line class="cls-4" x1="1173.34" y1="320.93" x2="1173.34" y2="444.92"/><line class="cls-4" x1="1193.17" y1="320.93" x2="1193.17" y2="444.92"/><line class="cls-4" x1="1213" y1="320.93" x2="1213" y2="444.92"/><line class="cls-4" x1="1232.83" y1="320.93" x2="1232.83" y2="444.92"/><line class="cls-4" x1="1252.66" y1="320.93" x2="1252.66" y2="444.92"/><line class="cls-4" x1="1272.5" y1="320.93" x2="1272.5" y2="444.92"/><line class="cls-4" x1="1292.33" y1="320.93" x2="1292.33" y2="444.92"/><line class="cls-4" x1="1312.16" y1="320.93" x2="1312.16" y2="444.92"/><line class="cls-4" x1="1331.99" y1="320.93" x2="1331.99" y2="444.92"/><line class="cls-4" x1="1351.82" y1="320.93" x2="1351.82" y2="444.92"/><line class="cls-4" x1="1371.65" y1="320.93" x2="1371.65" y2="444.92"/><line class="cls-4" x1="1391.48" y1="320.93" x2="1391.48" y2="444.92"/><line class="cls-4" x1="1411.32" y1="320.93" x2="1411.32" y2="444.92"/><line class="cls-4" x1="1431.15" y1="320.93" x2="1431.15" y2="444.92"/><line class="cls-4" x1="1450.98" y1="320.93" x2="1450.98" y2="444.92"/><line class="cls-4" x1="1470.81" y1="320.93" x2="1470.81" y2="444.92"/><line class="cls-4" x1="1490.64" y1="320.93" x2="1490.64" y2="444.92"/><line class="cls-4" x1="1510.47" y1="320.93" x2="1510.47" y2="444.92"/><line class="cls-4" x1="1530.31" y1="320.93" x2="1530.31" y2="444.92"/><line class="cls-4" x1="1550.14" y1="320.93" x2="1550.14" y2="444.92"/><line class="cls-4" x1="1094.01" y1="320.93" x2="1094.01" y2="444.92"/><line class="cls-4" x1="1074.18" y1="320.93" x2="1074.18" y2="446.98"/><line class="cls-4" x1="1054.35" y1="320.93" x2="1054.35" y2="446.37"/><line class="cls-4" x1="1034.52" y1="320.93" x2="1034.52" y2="446.37"/><rect class="cls-2" x="938.56" y="149.21" width="707.53" height="352.88" rx="2.19"/><text class="cls-1" transform="translate(765.29 678.71)"><tspan class="cls-6">A</tspan><tspan class="cls-7" x="28.87" y="0">pp</tspan><tspan class="cls-8" x="79.49" y="0">r</tspan><tspan x="94.51" y="0">oaches</tspan></text><text class="cls-9" transform="translate(221.73 814.06)">Statistics</text><text class="cls-10" transform="translate(231.55 1077.36)"><tspan xml:space="preserve">·  </tspan><tspan class="cls-11" x="20.15" y="0">Random Sanding</tspan><tspan x="0" y="33.61" xml:space="preserve">·  </tspan><tspan class="cls-11" x="20.15" y="33.61">Inte</tspan><tspan class="cls-12" x="62.51" y="33.61">r</tspan><tspan class="cls-13" x="71.22" y="33.61">f</tspan><tspan class="cls-11" x="79.68" y="33.61">e</tspan><tspan class="cls-14" x="93.03" y="33.61">r</tspan><tspan class="cls-11" x="101.33" y="33.61">ence</tspan><tspan x="0" y="67.23" xml:space="preserve">·  </tspan><tspan class="cls-11" x="20.15" y="67.23">Regularization</tspan></text><text class="cls-10" transform="translate(1031.7 1077.36)"><tspan xml:space="preserve">·  </tspan><tspan class="cls-11" x="20.15" y="0">Vi</tspan><tspan class="cls-15" x="42.31" y="0">r</tspan><tspan class="cls-11" x="51.45" y="0">tual Memo</tspan><tspan class="cls-16" x="171.5" y="0">r</tspan><tspan class="cls-11" x="180.25" y="0">y</tspan><tspan x="0" y="33.61" xml:space="preserve">·  </tspan><tspan class="cls-17" x="20.15" y="33.61">P</tspan><tspan class="cls-11" x="35.92" y="33.61">a</tspan><tspan class="cls-18" x="49.63" y="33.61">r</tspan><tspan class="cls-19" x="57.67" y="33.61">allelization</tspan><tspan x="0" y="67.23" xml:space="preserve">·   </tspan><tspan class="cls-19" x="26.43" y="67.23">GPU vs CPU</tspan></text><text class="cls-10" transform="translate(1345 1077.36)"><tspan xml:space="preserve">·  </tspan><tspan class="cls-11" x="20.15" y="0">VMS</tspan><tspan x="0" y="33.61" xml:space="preserve">·  </tspan><tspan class="cls-11" x="20.15" y="33.61">Distributed System</tspan><tspan x="0" y="67.23" xml:space="preserve">·   </tspan><tspan class="cls-11" x="26.43" y="67.23">Cloud S</tspan><tspan class="cls-20" x="112.64" y="67.23">t</tspan><tspan class="cls-21" x="120.63" y="67.23">o</tspan><tspan class="cls-18" x="135.01" y="67.23">r</tspan><tspan class="cls-11" x="143.05" y="67.23">age</tspan></text><text class="cls-10" transform="translate(672.51 1077.36)"><tspan xml:space="preserve">·  </tspan><tspan class="cls-21" x="20.15" y="0">Memo</tspan><tspan class="cls-16" x="91.99" y="0">r</tspan><tspan class="cls-11" x="100.74" y="0">y allocation</tspan><tspan x="0" y="33.61" xml:space="preserve">·  </tspan><tspan class="cls-21" x="20.15" y="33.61">Modify in Place</tspan></text><text class="cls-22" transform="translate(657.81 814.06)">E<tspan class="cls-23" x="16.63" y="0">fficient Code</tspan></text><text class="cls-9" transform="translate(963.29 814.06)">Computing Resou<tspan class="cls-24" x="238.21" y="0">r</tspan><tspan x="248.43" y="0">ces</tspan></text><text class="cls-9" transform="translate(1330.64 814.06)">Scaling Cloud</text><path class="cls-2" d="M798.28,1007.44H672.78a.28.28,0,0,1-.27-.28V872.53a.27.27,0,0,1,.27-.27H840.67a.27.27,0,0,1,.27.27v64"/><rect class="cls-2" x="672.51" y="872.26" width="168.44" height="23.57" rx="0.59"/><circle class="cls-2" cx="824.22" cy="975.05" r="41.59"/><rect class="cls-2" x="812.97" y="917.84" width="22.35" height="10.55" rx="0.79"/><rect class="cls-2" x="821.5" y="925.75" width="5.28" height="10.55" transform="translate(1755.17 106.89) rotate(90)"/><rect class="cls-2" x="847.41" y="935.04" width="12.71" height="6" rx="0.79" transform="translate(784.83 -328.48) rotate(39.19)"/><rect class="cls-2" x="849.41" y="938.53" width="3" height="6" transform="translate(2118.34 877.01) rotate(129.19)"/><rect class="cls-2" x="787.3" y="935.04" width="12.71" height="6" rx="0.79" transform="translate(2001.53 1163.53) rotate(140.81)"/><rect class="cls-2" x="795" y="938.53" width="3" height="6" transform="translate(1022.89 -270.76) rotate(50.81)"/><circle class="cls-2" cx="823.57" cy="975.42" r="3.41"/><line class="cls-2" x1="806.55" y1="958.19" x2="820.83" y2="973.09"/><line class="cls-2" x1="825.8" y1="978.06" x2="830.14" y2="982.4"/><line class="cls-2" x1="824.22" y1="936.56" x2="824.22" y2="939.66"/><line class="cls-2" x1="824.22" y1="1010.43" x2="824.22" y2="1013.54"/><line class="cls-2" x1="849.97" y1="946.44" x2="847.89" y2="948.74"/><line class="cls-2" x1="800.55" y1="1001.35" x2="798.47" y2="1003.66"/><line class="cls-2" x1="862.71" y1="975.05" x2="859.61" y2="975.05"/><line class="cls-2" x1="788.83" y1="975.05" x2="785.73" y2="975.05"/><line class="cls-2" x1="856.12" y1="997.82" x2="853.92" y2="995.63"/><line class="cls-2" x1="803.88" y1="945.59" x2="801.68" y2="943.39"/><text class="cls-25" transform="translate(692.49 978.77) scale(0.58)">&gt; _</text><circle class="cls-2" cx="683.63" cy="883.82" r="3.71"/><circle class="cls-2" cx="697.73" cy="883.82" r="3.71"/><circle class="cls-2" cx="711.83" cy="883.82" r="3.71"/><rect class="cls-2" x="1038.07" y="859.94" width="145.97" height="150.15" rx="2.52"/><rect class="cls-2" x="1031.7" y="853.39" width="158.71" height="163.25" rx="2.52"/><rect class="cls-26" x="1087.74" y="951.07" width="12.4" height="5.7" rx="0.38"/><rect class="cls-26" x="1103.17" y="951.07" width="12.4" height="5.7" rx="0.38"/><rect class="cls-26" x="1118.59" y="951.07" width="12.4" height="5.7" rx="0.38"/><rect class="cls-26" x="1088.12" y="941.62" width="12.4" height="5.7" rx="0.38"/><rect class="cls-26" x="1103.54" y="941.62" width="12.4" height="5.7" rx="0.38"/><rect class="cls-26" x="1118.96" y="941.62" width="12.4" height="5.7" rx="0.38"/><rect class="cls-26" x="1088.49" y="932.17" width="12.4" height="5.7" rx="0.38"/><rect class="cls-26" x="1103.91" y="932.17" width="12.4" height="5.7" rx="0.38"/><rect class="cls-26" x="1119.34" y="932.17" width="12.4" height="5.7" rx="0.38"/><rect class="cls-26" x="1096.73" y="922.71" width="12.4" height="5.7" rx="0.38"/><rect class="cls-26" x="1112.15" y="922.71" width="12.4" height="5.7" rx="0.38"/><rect class="cls-26" x="1121.96" y="913.26" width="12.4" height="5.7" rx="0.38"/><circle class="cls-2" cx="1056.57" cy="875.32" r="4.46"/><circle class="cls-2" cx="1070.19" cy="875.32" r="4.46"/><circle class="cls-2" cx="1083.81" cy="875.32" r="4.46"/><circle class="cls-2" cx="1097.43" cy="875.32" r="4.46"/><circle class="cls-2" cx="1111.05" cy="875.32" r="4.46"/><circle class="cls-2" cx="1124.67" cy="875.32" r="4.46"/><circle class="cls-2" cx="1138.29" cy="875.32" r="4.46"/><circle class="cls-2" cx="1151.91" cy="875.32" r="4.46"/><circle class="cls-2" cx="1165.53" cy="875.32" r="4.46"/><circle class="cls-2" cx="1056.57" cy="888.42" r="4.46"/><circle class="cls-2" cx="1070.19" cy="888.42" r="4.46"/><circle class="cls-2" cx="1083.81" cy="888.42" r="4.46"/><circle class="cls-2" cx="1097.43" cy="888.42" r="4.46"/><circle class="cls-2" cx="1111.05" cy="888.42" r="4.46"/><circle class="cls-2" cx="1124.67" cy="888.42" r="4.46"/><circle class="cls-2" cx="1138.29" cy="888.42" r="4.46"/><circle class="cls-2" cx="1151.91" cy="888.42" r="4.46"/><circle class="cls-2" cx="1165.53" cy="888.42" r="4.46"/><circle class="cls-2" cx="1165.53" cy="901.15" r="4.46"/><circle class="cls-2" cx="1165.53" cy="914.77" r="4.46"/><circle class="cls-2" cx="1165.53" cy="928.39" r="4.46"/><circle class="cls-2" cx="1165.53" cy="942.01" r="4.46"/><circle class="cls-2" cx="1165.53" cy="955.63" r="4.46"/><circle class="cls-2" cx="1165.53" cy="969.25" r="4.46"/><circle class="cls-2" cx="1152.43" cy="901.15" r="4.46"/><circle class="cls-2" cx="1152.43" cy="914.77" r="4.46"/><circle class="cls-2" cx="1152.43" cy="928.39" r="4.46"/><circle class="cls-2" cx="1152.43" cy="942.01" r="4.46"/><circle class="cls-2" cx="1152.43" cy="955.63" r="4.46"/><circle class="cls-2" cx="1152.43" cy="969.25" r="4.46"/><circle class="cls-2" cx="1165.53" cy="994.71" r="4.46"/><circle class="cls-2" cx="1151.91" cy="994.71" r="4.46"/><circle class="cls-2" cx="1138.29" cy="994.71" r="4.46"/><circle class="cls-2" cx="1124.67" cy="994.71" r="4.46"/><circle class="cls-2" cx="1111.05" cy="994.71" r="4.46"/><circle class="cls-2" cx="1097.43" cy="994.71" r="4.46"/><circle class="cls-2" cx="1083.81" cy="994.71" r="4.46"/><circle class="cls-2" cx="1070.19" cy="994.71" r="4.46"/><circle class="cls-2" cx="1056.57" cy="994.71" r="4.46"/><circle class="cls-2" cx="1165.53" cy="981.61" r="4.46"/><circle class="cls-2" cx="1151.91" cy="981.61" r="4.46"/><circle class="cls-2" cx="1138.29" cy="981.61" r="4.46"/><circle class="cls-2" cx="1124.67" cy="981.61" r="4.46"/><circle class="cls-2" cx="1111.05" cy="981.61" r="4.46"/><circle class="cls-2" cx="1097.43" cy="981.61" r="4.46"/><circle class="cls-2" cx="1083.81" cy="981.61" r="4.46"/><circle class="cls-2" cx="1070.19" cy="981.61" r="4.46"/><circle class="cls-2" cx="1056.57" cy="981.61" r="4.46"/><circle class="cls-2" cx="1056.57" cy="968.88" r="4.46"/><circle class="cls-2" cx="1056.57" cy="955.26" r="4.46"/><circle class="cls-2" cx="1056.57" cy="941.64" r="4.46"/><circle class="cls-2" cx="1056.57" cy="928.02" r="4.46"/><circle class="cls-2" cx="1056.57" cy="914.4" r="4.46"/><circle class="cls-2" cx="1056.57" cy="900.78" r="4.46"/><circle class="cls-2" cx="1069.68" cy="968.88" r="4.46"/><circle class="cls-2" cx="1069.68" cy="955.26" r="4.46"/><circle class="cls-2" cx="1069.68" cy="941.64" r="4.46"/><circle class="cls-2" cx="1069.68" cy="928.02" r="4.46"/><circle class="cls-2" cx="1069.68" cy="914.4" r="4.46"/><circle class="cls-2" cx="1069.68" cy="900.78" r="4.46"/><rect class="cls-2" x="1412.9" y="895.73" width="86.37" height="120.91" rx="6.92"/><rect class="cls-2" x="1425.96" y="967.02" width="3.46" height="3.46" rx="1.6"/><rect class="cls-2" x="1425.96" y="973.34" width="3.46" height="3.46" rx="1.6"/><rect class="cls-2" x="1425.96" y="979.66" width="3.46" height="3.46" rx="1.6"/><rect class="cls-2" x="1425.96" y="985.98" width="3.46" height="3.46" rx="1.6"/><rect class="cls-2" x="1425.96" y="992.3" width="3.46" height="3.46" rx="1.6"/><rect class="cls-2" x="1425.96" y="998.62" width="3.46" height="3.46" rx="1.6"/><rect class="cls-2" x="1474.31" y="916.89" width="3.46" height="3.46" rx="1.6"/><rect class="cls-2" x="1474.31" y="932.47" width="3.46" height="3.46" rx="1.6"/><rect class="cls-2" x="1474.31" y="948.06" width="3.46" height="3.46" rx="1.6"/><rect class="cls-2" x="1425.96" y="908.79" width="60.24" height="49.29"/><line class="cls-2" x1="1425.96" y1="925.22" x2="1486.2" y2="925.22"/><line class="cls-2" x1="1425.96" y1="941.65" x2="1486.2" y2="941.65"/><circle class="cls-2" cx="1456.08" cy="986.31" r="6.74"/><path class="cls-2" d="M1499.6,956.18a37.06,37.06,0,1,0,0-74.11,38.63,38.63,0,0,0-5.59.41,51.9,51.9,0,0,0-96,4.55c-.6,0-1.21-.08-1.81-.08a19.71,19.71,0,0,0-18,11.47,28.33,28.33,0,0,0-4.19-.31,29,29,0,1,0,0,58.07h38.43"/><rect class="cls-2" x="153.05" y="567.64" width="1492.97" height="690" rx="2.19"/><rect class="cls-2" x="105.03" y="102.49" width="1589" height="1201.86" rx="2.19"/><rect class="cls-2" x="240.41" y="938.02" width="20.05" height="58.81"/><rect class="cls-2" x="275.28" y="920.2" width="20.05" height="76.63"/><rect class="cls-2" x="310.15" y="907.58" width="20.05" height="89.25"/><rect class="cls-2" x="345.02" y="889.02" width="20.05" height="107.81"/><rect class="cls-2" x="451.17" y="938.02" width="20.05" height="58.81" transform="translate(922.39 1934.85) rotate(-180)"/><rect class="cls-2" x="415.53" y="920.2" width="20.05" height="76.63" transform="translate(851.11 1917.03) rotate(-180)"/><rect class="cls-2" x="379.89" y="907.58" width="20.05" height="89.25" transform="translate(779.83 1904.41) rotate(-180)"/><line class="cls-2" x1="499.97" y1="996.83" x2="221.73" y2="996.83"/><polygon points="514.09 996.83 494.19 988.7 498.92 996.83 494.19 1004.96 514.09 996.83"/><line class="cls-2" x1="221.73" y1="1016.64" x2="221.73" y2="857.09"/><polygon points="221.73 842.97 229.86 862.87 221.73 858.14 213.6 862.87 221.73 842.97"/><path class="cls-2" d="M240.18,967s42-19,59.57-38c24.46-26.44,32.43-40,55.63-40,23.8,0,39.79,24,56.18,40,13.85,13.52,41.73,34,59.62,39"/></svg>